<svg version="1.1" xmlns="http://www.w3.org/2000/svg" xmlns:xlink="http://www.w3.org/1999/xlink" xml:space="preserve">
  <circle id="kreis" cx="200" cy="200" r="200" stroke="#000000" stroke-width="2" fill="#ffffff"></circle>
  <circle id="mittelpunkt" cx="200" cy="200" r="2" fill="#ffffff"></circle>



  <rect id="0" x="192.5" y="10" width="15" height="50" transform="rotate(0, 200,200)"></rect>
  <circle id="led0" cx="200" cy="70" r="3" transform="rotate(0, 200,200)" fill="#00ff00"></circle>
  <rect id="1" x="196.5" y="10" width="7" height="20" transform="rotate(6,200,200)"></rect>
  <circle id="led1" cx="200" cy="40" r="3" transform="rotate(6, 200,200)" fill="#00ff00"></circle>
  <rect id="2" x="196.5" y="10" width="7" height="20" transform="rotate(12,200,200)"></rect>
  <circle id="led2" cx="200" cy="40" r="3" transform="rotate(12, 200,200)" fill="#00ff00"></circle>
  <rect id="3" x="196.5" y="10" width="7" height="20" transform="rotate(18,200,200)"></rect>
  <circle id="led3" cx="200" cy="40" r="3" transform="rotate(18, 200,200)" fill="#00ff00"></circle>
  <rect id="4" x="196.5" y="10" width="7" height="20" transform="rotate(24,200,200)"></rect>
  <circle id="led4" cx="200" cy="40" r="3" transform="rotate(24, 200,200)" fill="#00ff00"></circle>
  <rect id="5" x="192.5" y="10" width="15" height="40" transform="rotate(30,200,200)"></rect>
  <circle id="led5" cx="200" cy="60" r="3" transform="rotate(30, 200,200)" fill="#00ff00"></circle>

  <rect id="6" x="196.5" y="10" width="7" height="20" transform="rotate(36,200,200)"></rect>
  <circle id="led6" cx="200" cy="40" r="3" transform="rotate(36, 200,200)" fill="#00ff00"></circle>
  <rect id="7" x="196.5" y="10" width="7" height="20" transform="rotate(42,200,200)"></rect>
  <circle id="led7" cx="200" cy="40" r="3" transform="rotate(42, 200,200)" fill="#00ff00"></circle>
  <rect id="8" x="196.5" y="10" width="7" height="20" transform="rotate(48,200,200)"></rect>
  <circle id="led8" cx="200" cy="40" r="3" transform="rotate(48, 200,200)" fill="#00ff00"></circle>
  <rect id="9" x="196.5" y="10" width="7" height="20" transform="rotate(54,200,200)"></rect>
  <circle id="led9" cx="200" cy="40" r="3" transform="rotate(54, 200,200)" fill="#00ff00"></circle>
  <rect id="10" x="192.5" y="10" width="15" height="40" transform="rotate(60,200,200)"></rect>
  <circle id="led10" cx="200" cy="60" r="3" transform="rotate(60, 200,200)" fill="#00ff00"></circle>

  <rect id="11" x="196.5" y="10" width="7" height="20" transform="rotate(66,200,200)"></rect>
  <circle id="led11" cx="200" cy="40" r="3" transform="rotate(66, 200,200)" fill="#00ff00"></circle>
  <rect id="12" x="196.5" y="10" width="7" height="20" transform="rotate(72,200,200)"></rect>
  <circle id="led12" cx="200" cy="40" r="3" transform="rotate(72, 200,200)" fill="#00ff00"></circle>
  <rect id="13" x="196.5" y="10" width="7" height="20" transform="rotate(78,200,200)"></rect>
  <circle id="led13" cx="200" cy="40" r="3" transform="rotate(78, 200,200)" fill="#00ff00"></circle>
  <rect id="14" x="196.5" y="10" width="7" height="20" transform="rotate(84,200,200)"></rect>
  <circle id="led14" cx="200" cy="40" r="3" transform="rotate(84, 200,200)" fill="#00ff00"></circle>
  <rect id="15" x="192.5" y="10" width="15" height="50" transform="rotate(90,200,200)"></rect>
  <circle id="led15" cx="200" cy="70" r="3" transform="rotate(90, 200,200)" fill="#00ff00"></circle>

  <rect id="16" x="196.5" y="10" width="7" height="20" transform="rotate(96,200,200)"></rect>
  <circle id="led16" cx="200" cy="40" r="3" transform="rotate(96, 200,200)" fill="#00ff00"></circle>
  <rect id="17" x="196.5" y="10" width="7" height="20" transform="rotate(102,200,200)"></rect>
  <circle id="led17" cx="200" cy="40" r="3" transform="rotate(102, 200,200)" fill="#00ff00"></circle>
  <rect id="18" x="196.5" y="10" width="7" height="20" transform="rotate(108,200,200)"></rect>
  <circle id="led18" cx="200" cy="40" r="3" transform="rotate(108, 200,200)" fill="#00ff00"></circle>
  <rect id="19" x="196.5" y="10" width="7" height="20" transform="rotate(114,200,200)"></rect>
  <circle id="led19" cx="200" cy="40" r="3" transform="rotate(114, 200,200)" fill="#00ff00"></circle>
  <rect id="20" x="192.5" y="10" width="15" height="40" transform="rotate(120,200,200)"></rect>
  <circle id="led20" cx="200" cy="60" r="3" transform="rotate(120, 200,200)" fill="#05ff00"></circle>

  <rect id="21" x="196.5" y="10" width="7" height="20" transform="rotate(126,200,200)"></rect>
  <circle id="led21" cx="200" cy="40" r="3" transform="rotate(126, 200,200)" fill="#00ff00"></circle>
  <rect id="22" x="196.5" y="10" width="7" height="20" transform="rotate(132,200,200)"></rect>
  <circle id="led22" cx="200" cy="40" r="3" transform="rotate(132, 200,200)" fill="#00ff00"></circle>
  <rect id="23" x="196.5" y="10" width="7" height="20" transform="rotate(138,200,200)"></rect>
  <circle id="led23" cx="200" cy="40" r="3" transform="rotate(138, 200,200)" fill="#00ff00"></circle>
  <rect id="24" x="196.5" y="10" width="7" height="20" transform="rotate(144,200,200)"></rect>
  <circle id="led24" cx="200" cy="40" r="3" transform="rotate(144, 200,200)" fill="#00ff00"></circle>
  <rect id="25" x="192.5" y="10" width="15" height="40" transform="rotate(150,200,200)"></rect>
  <circle id="led25" cx="200" cy="60" r="3" transform="rotate(150, 200,200)" fill="#00ff00"></circle>

  <rect id="26" x="196.5" y="10" width="7" height="20" transform="rotate(156,200,200)"></rect>
  <circle id="led26" cx="200" cy="40" r="3" transform="rotate(156, 200,200)" fill="#00ff00"></circle>
  <rect id="27" x="196.5" y="10" width="7" height="20" transform="rotate(162,200,200)"></rect>
  <circle id="led27" cx="200" cy="40" r="3" transform="rotate(162, 200,200)" fill="#00ff00"></circle>
  <rect id="28" x="196.5" y="10" width="7" height="20" transform="rotate(168,200,200)"></rect>
  <circle id="led28" cx="200" cy="40" r="3" transform="rotate(168, 200,200)" fill="#00ff00"></circle>
  <rect id="29" x="196.5" y="10" width="7" height="20" transform="rotate(174,200,200)"></rect>
  <circle id="led29" cx="200" cy="40" r="3" transform="rotate(174, 200,200)" fill="#00ff00"></circle>
  <rect id="30" x="192.5" y="10" width="15" height="50" transform="rotate(180,200,200)"></rect>
  <circle id="led30" cx="200" cy="70" r="3" transform="rotate(180, 200,200)" fill="#00ff00"></circle>

  <rect id="31" x="196.5" y="10" width="7" height="20" transform="rotate(186,200,200)"></rect>
  <circle id="led31" cx="200" cy="40" r="3" transform="rotate(186, 200,200)" fill="#00ff00"></circle>
  <rect id="32" x="196.5" y="10" width="7" height="20" transform="rotate(192,200,200)"></rect>
  <circle id="led32" cx="200" cy="40" r="3" transform="rotate(192, 200,200)" fill="#00ff00"></circle>
  <rect id="33" x="196.5" y="10" width="7" height="20" transform="rotate(198,200,200)"></rect>
  <circle id="led33" cx="200" cy="40" r="3" transform="rotate(198, 200,200)" fill="#00ff00"></circle>
  <rect id="34" x="196.5" y="10" width="7" height="20" transform="rotate(204,200,200)"></rect>
  <circle id="led34" cx="200" cy="40" r="3" transform="rotate(204, 200,200)" fill="#00ff00"></circle>
  <rect id="35" x="192.5" y="10" width="15" height="40" transform="rotate(210,200,200)"></rect>
  <circle id="led35" cx="200" cy="60" r="3" transform="rotate(210, 200,200)" fill="#00ff00"></circle>

  <rect id="36" x="196.5" y="10" width="7" height="20" transform="rotate(216,200,200)"></rect>
  <circle id="led36" cx="200" cy="40" r="3" transform="rotate(216, 200,200)" fill="#00ff00"></circle>
  <rect id="37" x="196.5" y="10" width="7" height="20" transform="rotate(222,200,200)"></rect>
  <circle id="led37" cx="200" cy="40" r="3" transform="rotate(222, 200,200)" fill="#00ff00"></circle>
  <rect id="38" x="196.5" y="10" width="7" height="20" transform="rotate(228,200,200)"></rect>
  <circle id="led38" cx="200" cy="40" r="3" transform="rotate(228, 200,200)" fill="#00ff00"></circle>
  <rect id="39" x="196.5" y="10" width="7" height="20" transform="rotate(234,200,200)"></rect>
  <circle id="led39" cx="200" cy="40" r="3" transform="rotate(234, 200,200)" fill="#00ff00"></circle>
  <rect id="40" x="192.5" y="10" width="15" height="40" transform="rotate(240,200,200)"></rect>
  <circle id="led40" cx="200" cy="60" r="3" transform="rotate(240, 200,200)" fill="#00ff00"></circle>

  <rect id="41" x="196.5" y="10" width="7" height="20" transform="rotate(246,200,200)"></rect>
  <circle id="led41" cx="200" cy="40" r="3" transform="rotate(246, 200,200)" fill="#00ff00"></circle>
  <rect id="42" x="196.5" y="10" width="7" height="20" transform="rotate(252,200,200)"></rect>
  <circle id="led42" cx="200" cy="40" r="3" transform="rotate(252, 200,200)" fill="#00ff00"></circle>
  <rect id="43" x="196.5" y="10" width="7" height="20" transform="rotate(258,200,200)"></rect>
  <circle id="led43" cx="200" cy="40" r="3" transform="rotate(258, 200,200)" fill="#00ff00"></circle>
  <rect id="44" x="196.5" y="10" width="7" height="20" transform="rotate(264,200,200)"></rect>
  <circle id="led44" cx="200" cy="40" r="3" transform="rotate(264, 200,200)" fill="#00ff00"></circle>
  <rect id="45" x="192.5" y="10" width="15" height="50" transform="rotate(270,200,200)"></rect>
  <circle id="led45" cx="200" cy="70" r="3" transform="rotate(270, 200,200)" fill="#00ff00"></circle>
  
  <rect id="46" x="196.5" y="10" width="7" height="20" transform="rotate(276,200,200)"></rect>
  <circle id="led46" cx="200" cy="40" r="3" transform="rotate(276, 200,200)" fill="#00ff00"></circle>
  <rect id="47" x="196.5" y="10" width="7" height="20" transform="rotate(282,200,200)"></rect>
  <circle id="led47" cx="200" cy="40" r="3" transform="rotate(282, 200,200)" fill="#00ff00"></circle>
  <rect id="48" x="196.5" y="10" width="7" height="20" transform="rotate(288,200,200)"></rect>
  <circle id="led48" cx="200" cy="40" r="3" transform="rotate(288, 200,200)" fill="#00ff00"></circle>
  <rect id="49" x="196.5" y="10" width="7" height="20" transform="rotate(294,200,200)"></rect>
  <circle id="led49" cx="200" cy="40" r="3" transform="rotate(294, 200,200)" fill="#00ff00"></circle>
  <rect id="50" x="192.5" y="10" width="15" height="40" transform="rotate(300,200,200)"></rect>
  <circle id="led50" cx="200" cy="60" r="3" transform="rotate(300, 200,200)" fill="#00ff00"></circle>
  
  <rect id="51" x="196.5" y="10" width="7" height="20" transform="rotate(306,200,200)"></rect>
  <circle id="led51" cx="200" cy="40" r="3" transform="rotate(306, 200,200)" fill="#00ff00"></circle>
  <rect id="52" x="196.5" y="10" width="7" height="20" transform="rotate(312,200,200)"></rect>
  <circle id="led52" cx="200" cy="40" r="3" transform="rotate(312, 200,200)" fill="#00ff00"></circle>
  <rect id="53" x="196.5" y="10" width="7" height="20" transform="rotate(318,200,200)"></rect>
  <circle id="led53" cx="200" cy="40" r="3" transform="rotate(318, 200,200)" fill="#00ff00"></circle>
  <rect id="54" x="196.5" y="10" width="7" height="20" transform="rotate(324,200,200)"></rect>
  <circle id="led54" cx="200" cy="40" r="3" transform="rotate(324, 200,200)" fill="#00ff00"></circle>
  <rect id="55" x="192.5" y="10" width="15" height="40" transform="rotate(330,200,200)"></rect>
  <circle id="led55" cx="200" cy="60" r="3" transform="rotate(330, 200,200)" fill="#00ff00"></circle>
  
  <rect id="56" x="196.5" y="10" width="7" height="20" transform="rotate(336,200,200)"></rect>
  <circle id="led56" cx="200" cy="40" r="3" transform="rotate(336, 200,200)" fill="#00ff00"></circle>
  <rect id="57" x="196.5" y="10" width="7" height="20" transform="rotate(342,200,200)"></rect>
  <circle id="led57" cx="200" cy="40" r="3" transform="rotate(342, 200,200)" fill="#00ff00"></circle>
  <rect id="58" x="196.5" y="10" width="7" height="20" transform="rotate(348,200,200)"></rect>
  <circle id="led58" cx="200" cy="40" r="3" transform="rotate(348, 200,200)" fill="#00ff00"></circle>
  <rect id="59" x="196.5" y="10" width="7" height="20" transform="rotate(354,200,200)"></rect>
  <circle id="led59" cx="200" cy="40" r="3" transform="rotate(354, 200,200)" fill="#00ff00"></circle>

  <rect id="minutenzeiger" x="192.5" y="55" width="15" height="165" transform="rotate(30,200,200)"></rect>
  <rect id="stundenzeiger" x="192.5" y="120" width="15" height="100" transform="rotate(0,200,200)"></rect>
</svg>
