<?xml version="1.0" encoding="UTF-8" standalone="no"?>
<!-- Created with Inkscape (http://www.inkscape.org/) -->

<svg
   xmlns:dc="http://purl.org/dc/elements/1.1/"
   xmlns:cc="http://creativecommons.org/ns#"
   xmlns:rdf="http://www.w3.org/1999/02/22-rdf-syntax-ns#"
   xmlns:svg="http://www.w3.org/2000/svg"
   xmlns="http://www.w3.org/2000/svg"
   xmlns:xlink="http://www.w3.org/1999/xlink"
   xmlns:sodipodi="http://sodipodi.sourceforge.net/DTD/sodipodi-0.dtd"
   xmlns:inkscape="http://www.inkscape.org/namespaces/inkscape"
   width="623mm"
   height="623mm"
   viewBox="0 0 2207.4803 2207.4803"
   id="svg2816"
   version="1.1"
   inkscape:version="0.91 r"
   sodipodi:docname="Zechenuhr_Bohrschablone_Konturen.svg">
  <defs
     id="defs2818" />
  <sodipodi:namedview
     pagecolor="#ffffff"
     bordercolor="#666666"
     borderopacity="1.0"
     inkscape:pageopacity="0.0"
     inkscape:pageshadow="2"
     inkscape:zoom="0.25"
     inkscape:cx="798.44272"
     inkscape:cy="1097.2436"
     inkscape:document-units="mm"
     inkscape:current-layer="layer1"
     id="namedview2820"
     showgrid="false"
     units="mm"
     showguides="true"
     inkscape:guide-bbox="true"
     inkscape:snap-global="true"
     inkscape:snap-bbox="false"
     inkscape:snap-bbox-midpoints="true"
     inkscape:window-width="1366"
     inkscape:window-height="716"
     inkscape:window-maximized="1"
     inkscape:bbox-paths="true"
     inkscape:bbox-nodes="true"
     inkscape:snap-bbox-edge-midpoints="true"
     inkscape:snap-grids="true"
     inkscape:object-nodes="true"
     inkscape:snap-center="true"
     inkscape:window-x="0"
     inkscape:window-y="0"
     inkscape:snap-object-midpoints="false">
    <sodipodi:guide
       orientation="1,0"
       position="1103.7402,1103.7402"
       id="guide3337"
       inkscape:label=""
       inkscape:color="rgb(0,0,255)" />
    <sodipodi:guide
       orientation="0,1"
       position="1103.7402,1103.7402"
       id="guide3339"
       inkscape:label=""
       inkscape:color="rgb(0,0,255)" />
    <inkscape:grid
       type="xygrid"
       id="grid3351"
       units="mm"
       spacingx="1mm"
       spacingy="1mm"
       empspacing="5" />
  </sodipodi:namedview>
  <metadata
     id="metadata2822">
    <rdf:RDF>
      <cc:Work
         rdf:about="">
        <dc:format>image/svg+xml</dc:format>
        <dc:type
           rdf:resource="http://purl.org/dc/dcmitype/StillImage" />
        <dc:title></dc:title>
      </cc:Work>
    </rdf:RDF>
  </metadata>
  <g
     inkscape:groupmode="layer"
     id="Template"
     inkscape:label="Ziffernblatt"
     style="display:inline;fill:none;stroke:#000000;stroke-width:0.35433072px"
     transform="translate(0,1782.2835)"
     sodipodi:insensitive="true">
    <rect
       style="fill:none;fill-opacity:0;fill-rule:evenodd;stroke:#000000;stroke-width:1.77165353;stroke-linecap:butt;stroke-linejoin:miter;stroke-miterlimit:4;stroke-dasharray:none;stroke-opacity:1"
       id="rect3399"
       height="307.27542"
       x="1063.4883"
       y="32.385876"
       width="80.503769"
       inkscape:transform-center-y="864.56702" />
    <circle
       id="path3341"
       cx="1103.7402"
       cy="-678.5434"
       style="stroke-width:1.83803523px"
       r="1102.8212" />
    <rect
       inkscape:transform-center-y="972.59545"
       width="35.096352"
       y="377.91907"
       x="1151.0728"
       height="81.159348"
       id="rect4278"
       style="fill:none;fill-opacity:1;fill-rule:evenodd;stroke:#000000;stroke-width:1.77165353;stroke-linecap:butt;stroke-linejoin:miter;stroke-miterlimit:4;stroke-dasharray:none;stroke-opacity:1"
       inkscape:transform-center-x="-102.22397"
       transform="matrix(0.9945219,-0.10452846,0.10452846,0.9945219,0,0)" />
    <use
       x="0"
       y="0"
       xlink:href="#rect3399"
       inkscape:transform-center-y="748.737"
       id="use4500"
       transform="matrix(0.8660254,-0.5,0.5,0.8660254,487.14486,460.9625)"
       width="100%"
       height="100%"
       inkscape:transform-center-x="-432.2835" />
    <use
       x="0"
       y="0"
       xlink:href="#use4500"
       inkscape:transform-center-x="-748.73698"
       inkscape:transform-center-y="432.28351"
       id="use4502"
       transform="matrix(0.8660254,-0.5,0.5,0.8660254,487.14486,460.9625)"
       width="100%"
       height="100%" />
    <use
       x="0"
       y="0"
       xlink:href="#use4502"
       inkscape:transform-center-x="-864.56699"
       id="use4504"
       transform="matrix(0.8660254,-0.5,0.5,0.8660254,487.14486,460.9625)"
       width="100%"
       height="100%" />
    <use
       x="0"
       y="0"
       xlink:href="#use4504"
       inkscape:transform-center-x="-748.73697"
       id="use4506"
       transform="matrix(0.8660254,-0.5,0.5,0.8660254,487.14486,460.96251)"
       width="100%"
       height="100%"
       inkscape:transform-center-y="-432.28349" />
    <use
       x="0"
       y="0"
       xlink:href="#use4506"
       inkscape:transform-center-x="-432.28349"
       inkscape:transform-center-y="-748.73696"
       id="use4508"
       transform="matrix(0.8660254,-0.5,0.5,0.8660254,487.14486,460.96251)"
       width="100%"
       height="100%" />
    <use
       x="0"
       y="0"
       xlink:href="#use4508"
       inkscape:transform-center-y="-864.56696"
       id="use4510"
       transform="matrix(0.8660254,-0.5,0.5,0.8660254,487.14486,460.96251)"
       width="100%"
       height="100%" />
    <use
       x="0"
       y="0"
       xlink:href="#use4510"
       inkscape:transform-center-y="-748.73695"
       id="use4512"
       transform="matrix(0.8660254,-0.5,0.5,0.8660254,487.14486,460.9625)"
       width="100%"
       height="100%"
       inkscape:transform-center-x="432.28348" />
    <use
       x="0"
       y="0"
       xlink:href="#use4512"
       inkscape:transform-center-x="748.73695"
       inkscape:transform-center-y="-432.28348"
       id="use4514"
       transform="matrix(0.8660254,-0.5,0.5,0.8660254,487.14486,460.9625)"
       width="100%"
       height="100%" />
    <use
       x="0"
       y="0"
       xlink:href="#use4514"
       inkscape:transform-center-x="864.56696"
       id="use4516"
       transform="matrix(0.8660254,-0.5,0.5,0.8660254,487.14486,460.9625)"
       width="100%"
       height="100%" />
    <use
       x="0"
       y="0"
       xlink:href="#use4516"
       inkscape:transform-center-x="748.73695"
       id="use4518"
       transform="matrix(0.8660254,-0.5,0.5,0.8660254,487.14486,460.9625)"
       width="100%"
       height="100%"
       inkscape:transform-center-y="432.28348" />
    <use
       x="0"
       y="0"
       xlink:href="#use4518"
       inkscape:transform-center-x="432.28348"
       inkscape:transform-center-y="748.73695"
       id="use4520"
       transform="matrix(0.8660254,-0.5,0.5,0.8660254,487.14486,460.9625)"
       width="100%"
       height="100%" />
    <use
       x="0"
       y="0"
       xlink:href="#rect4278"
       inkscape:transform-center-x="-203.32789"
       inkscape:transform-center-y="956.58216"
       id="use4541"
       transform="matrix(0.9945219,-0.10452846,0.10452846,0.9945219,76.973507,111.65513)"
       width="100%"
       height="100%" />
    <use
       x="0"
       y="0"
       xlink:href="#use4541"
       inkscape:transform-center-x="-302.20411"
       inkscape:transform-center-y="930.08836"
       id="use4543"
       transform="matrix(0.9945219,-0.10452846,0.10452846,0.9945219,76.973507,111.65513)"
       width="100%"
       height="100%" />
    <use
       x="0"
       y="0"
       xlink:href="#use4543"
       inkscape:transform-center-x="-397.76932"
       inkscape:transform-center-y="893.40431"
       id="use4545"
       transform="matrix(0.9945219,-0.10452846,0.10452846,0.9945219,76.973508,111.65513)"
       width="100%"
       height="100%" />
    <use
       x="0"
       y="0"
       xlink:href="#rect4278"
       inkscape:transform-center-x="-574.82627"
       inkscape:transform-center-y="791.18039"
       id="use4547"
       transform="matrix(0.8660254,-0.5,0.5,0.8660254,487.14486,460.9625)"
       width="100%"
       height="100%" />
    <use
       x="0"
       y="0"
       xlink:href="#use4541"
       inkscape:transform-center-x="-654.37819"
       inkscape:transform-center-y="726.76051"
       id="use4549"
       transform="matrix(0.8660254,-0.5,0.5,0.8660254,487.14486,460.9625)"
       width="100%"
       height="100%" />
    <use
       x="0"
       y="0"
       xlink:href="#use4543"
       inkscape:transform-center-x="-726.76061"
       inkscape:transform-center-y="654.3781"
       id="use4551"
       transform="matrix(0.8660254,-0.5,0.5,0.8660254,487.14486,460.9625)"
       width="100%"
       height="100%" />
    <use
       x="0"
       y="0"
       xlink:href="#use4545"
       inkscape:transform-center-x="-791.18048"
       inkscape:transform-center-y="574.82617"
       id="use4553"
       transform="matrix(0.8660254,-0.5,0.5,0.8660254,487.14486,460.9625)"
       width="100%"
       height="100%" />
    <use
       x="0"
       y="0"
       xlink:href="#use4547"
       inkscape:transform-center-x="-893.40434"
       inkscape:transform-center-y="397.76918"
       id="use4555"
       transform="matrix(0.8660254,-0.5,0.5,0.8660254,487.14486,460.9625)"
       width="100%"
       height="100%" />
    <use
       x="0"
       y="0"
       xlink:href="#use4549"
       inkscape:transform-center-x="-930.08838"
       inkscape:transform-center-y="302.20397"
       id="use4557"
       transform="matrix(0.8660254,-0.5,0.5,0.8660254,487.14486,460.9625)"
       width="100%"
       height="100%" />
    <use
       x="0"
       y="0"
       xlink:href="#use4551"
       inkscape:transform-center-x="-956.58219"
       inkscape:transform-center-y="203.32776"
       id="use4559"
       transform="matrix(0.8660254,-0.5,0.5,0.8660254,487.14486,460.9625)"
       width="100%"
       height="100%" />
    <use
       x="0"
       y="0"
       xlink:href="#use4553"
       inkscape:transform-center-x="-972.59547"
       inkscape:transform-center-y="102.22383"
       id="use4561"
       transform="matrix(0.8660254,-0.5,0.5,0.8660254,487.14486,460.9625)"
       width="100%"
       height="100%" />
    <use
       x="0"
       y="0"
       xlink:href="#use4555"
       inkscape:transform-center-x="-972.59543"
       inkscape:transform-center-y="-102.22395"
       id="use4563"
       transform="matrix(0.8660254,-0.5,0.5,0.8660254,487.14486,460.9625)"
       width="100%"
       height="100%" />
    <use
       x="0"
       y="0"
       xlink:href="#use4557"
       inkscape:transform-center-x="-956.58214"
       inkscape:transform-center-y="-203.32787"
       id="use4565"
       transform="matrix(0.8660254,-0.5,0.5,0.8660254,487.14486,460.9625)"
       width="100%"
       height="100%" />
    <use
       x="0"
       y="0"
       xlink:href="#use4559"
       inkscape:transform-center-x="-930.08835"
       inkscape:transform-center-y="-302.20408"
       id="use4567"
       transform="matrix(0.8660254,-0.5,0.5,0.8660254,487.14486,460.9625)"
       width="100%"
       height="100%" />
    <use
       x="0"
       y="0"
       xlink:href="#use4561"
       inkscape:transform-center-x="-893.40429"
       inkscape:transform-center-y="-397.7693"
       id="use4569"
       transform="matrix(0.8660254,-0.5,0.5,0.8660254,487.14486,460.9625)"
       width="100%"
       height="100%" />
    <use
       x="0"
       y="0"
       xlink:href="#use4563"
       inkscape:transform-center-x="-791.18037"
       inkscape:transform-center-y="-574.82625"
       id="use4571"
       transform="matrix(0.8660254,-0.5,0.5,0.8660254,487.14486,460.9625)"
       width="100%"
       height="100%" />
    <use
       x="0"
       y="0"
       xlink:href="#use4565"
       inkscape:transform-center-x="-726.76049"
       inkscape:transform-center-y="-654.37816"
       id="use4573"
       transform="matrix(0.8660254,-0.5,0.5,0.8660254,487.14486,460.9625)"
       width="100%"
       height="100%" />
    <use
       x="0"
       y="0"
       xlink:href="#use4567"
       inkscape:transform-center-x="-654.37809"
       inkscape:transform-center-y="-726.76058"
       id="use4575"
       transform="matrix(0.8660254,-0.5,0.5,0.8660254,487.14486,460.9625)"
       width="100%"
       height="100%" />
    <use
       x="0"
       y="0"
       xlink:href="#use4569"
       inkscape:transform-center-x="-574.82615"
       inkscape:transform-center-y="-791.18046"
       id="use4577"
       transform="matrix(0.8660254,-0.5,0.5,0.8660254,487.14486,460.9625)"
       width="100%"
       height="100%" />
    <use
       x="0"
       y="0"
       xlink:href="#use4571"
       inkscape:transform-center-x="-397.76917"
       inkscape:transform-center-y="-893.40431"
       id="use4579"
       transform="matrix(0.8660254,-0.5,0.5,0.8660254,487.14486,460.9625)"
       width="100%"
       height="100%" />
    <use
       x="0"
       y="0"
       xlink:href="#use4573"
       inkscape:transform-center-x="-302.20396"
       inkscape:transform-center-y="-930.08835"
       id="use4581"
       transform="matrix(0.8660254,-0.5,0.5,0.8660254,487.14486,460.9625)"
       width="100%"
       height="100%" />
    <use
       x="0"
       y="0"
       xlink:href="#use4575"
       inkscape:transform-center-x="-203.32775"
       inkscape:transform-center-y="-956.58216"
       id="use4583"
       transform="matrix(0.8660254,-0.5,0.5,0.8660254,487.14486,460.9625)"
       width="100%"
       height="100%" />
    <use
       x="0"
       y="0"
       xlink:href="#use4577"
       inkscape:transform-center-x="-102.22381"
       inkscape:transform-center-y="-972.59545"
       id="use4585"
       transform="matrix(0.8660254,-0.5,0.5,0.8660254,487.14486,460.9625)"
       width="100%"
       height="100%" />
    <use
       x="0"
       y="0"
       xlink:href="#use4579"
       inkscape:transform-center-x="102.22395"
       inkscape:transform-center-y="-972.59541"
       id="use4587"
       transform="matrix(0.8660254,-0.5,0.5,0.8660254,487.14486,460.9625)"
       width="100%"
       height="100%" />
    <use
       x="0"
       y="0"
       xlink:href="#use4581"
       inkscape:transform-center-x="203.32787"
       inkscape:transform-center-y="-956.58211"
       id="use4589"
       transform="matrix(0.8660254,-0.5,0.5,0.8660254,487.14486,460.9625)"
       width="100%"
       height="100%" />
    <use
       x="0"
       y="0"
       xlink:href="#use4583"
       inkscape:transform-center-x="302.20409"
       inkscape:transform-center-y="-930.08832"
       id="use4591"
       transform="matrix(0.8660254,-0.5,0.5,0.8660254,487.14486,460.9625)"
       width="100%"
       height="100%" />
    <use
       x="0"
       y="0"
       xlink:href="#use4585"
       inkscape:transform-center-x="397.76931"
       inkscape:transform-center-y="-893.40427"
       id="use4593"
       transform="matrix(0.8660254,-0.5,0.5,0.8660254,487.14486,460.9625)"
       width="100%"
       height="100%" />
    <use
       x="0"
       y="0"
       xlink:href="#use4587"
       inkscape:transform-center-x="574.82624"
       inkscape:transform-center-y="-791.18035"
       id="use4595"
       transform="matrix(0.8660254,-0.5,0.5,0.8660254,487.14486,460.9625)"
       width="100%"
       height="100%" />
    <use
       x="0"
       y="0"
       xlink:href="#use4589"
       inkscape:transform-center-x="654.37815"
       inkscape:transform-center-y="-726.76047"
       id="use4597"
       transform="matrix(0.8660254,-0.5,0.5,0.8660254,487.14486,460.9625)"
       width="100%"
       height="100%" />
    <use
       x="0"
       y="0"
       xlink:href="#use4591"
       inkscape:transform-center-x="726.76058"
       inkscape:transform-center-y="-654.37806"
       id="use4599"
       transform="matrix(0.8660254,-0.5,0.5,0.8660254,487.14486,460.9625)"
       width="100%"
       height="100%" />
    <use
       x="0"
       y="0"
       xlink:href="#use4593"
       inkscape:transform-center-x="791.18046"
       inkscape:transform-center-y="-574.82613"
       id="use4601"
       transform="matrix(0.8660254,-0.5,0.5,0.8660254,487.14486,460.9625)"
       width="100%"
       height="100%" />
    <use
       x="0"
       y="0"
       xlink:href="#use4595"
       inkscape:transform-center-x="893.4043"
       inkscape:transform-center-y="-397.76916"
       id="use4603"
       transform="matrix(0.8660254,-0.5,0.5,0.8660254,487.14486,460.9625)"
       width="100%"
       height="100%" />
    <use
       x="0"
       y="0"
       xlink:href="#use4597"
       inkscape:transform-center-x="930.08834"
       inkscape:transform-center-y="-302.20395"
       id="use4605"
       transform="matrix(0.8660254,-0.5,0.5,0.8660254,487.14486,460.9625)"
       width="100%"
       height="100%" />
    <use
       x="0"
       y="0"
       xlink:href="#use4599"
       inkscape:transform-center-x="956.58215"
       inkscape:transform-center-y="-203.32773"
       id="use4607"
       transform="matrix(0.8660254,-0.5,0.5,0.8660254,487.14486,460.9625)"
       width="100%"
       height="100%" />
    <use
       x="0"
       y="0"
       xlink:href="#use4601"
       inkscape:transform-center-x="972.59544"
       inkscape:transform-center-y="-102.2238"
       id="use4609"
       transform="matrix(0.8660254,-0.5,0.5,0.8660254,487.14486,460.9625)"
       width="100%"
       height="100%" />
    <use
       x="0"
       y="0"
       xlink:href="#use4603"
       inkscape:transform-center-x="972.5954"
       inkscape:transform-center-y="102.22396"
       id="use4611"
       transform="matrix(0.8660254,-0.5,0.5,0.8660254,487.14486,460.9625)"
       width="100%"
       height="100%" />
    <use
       x="0"
       y="0"
       xlink:href="#use4605"
       inkscape:transform-center-x="956.5821"
       inkscape:transform-center-y="203.32788"
       id="use4613"
       transform="matrix(0.8660254,-0.5,0.5,0.8660254,487.14486,460.9625)"
       width="100%"
       height="100%" />
    <use
       x="0"
       y="0"
       xlink:href="#use4607"
       inkscape:transform-center-x="930.0883"
       inkscape:transform-center-y="302.2041"
       id="use4615"
       transform="matrix(0.8660254,-0.5,0.5,0.8660254,487.14486,460.9625)"
       width="100%"
       height="100%" />
    <use
       x="0"
       y="0"
       xlink:href="#use4609"
       inkscape:transform-center-x="893.40425"
       inkscape:transform-center-y="397.76932"
       id="use4617"
       transform="matrix(0.8660254,-0.5,0.5,0.8660254,487.14486,460.9625)"
       width="100%"
       height="100%" />
    <use
       x="0"
       y="0"
       xlink:href="#use4611"
       inkscape:transform-center-x="791.18034"
       inkscape:transform-center-y="574.82625"
       id="use4619"
       transform="matrix(0.8660254,-0.5,0.5,0.8660254,487.14486,460.9625)"
       width="100%"
       height="100%" />
    <use
       x="0"
       y="0"
       xlink:href="#use4613"
       inkscape:transform-center-x="726.76046"
       inkscape:transform-center-y="654.37816"
       id="use4621"
       transform="matrix(0.8660254,-0.5,0.5,0.8660254,487.14486,460.9625)"
       width="100%"
       height="100%" />
    <use
       x="0"
       y="0"
       xlink:href="#use4615"
       inkscape:transform-center-x="654.37804"
       inkscape:transform-center-y="726.76058"
       id="use4623"
       transform="matrix(0.8660254,-0.5,0.5,0.8660254,487.14486,460.9625)"
       width="100%"
       height="100%" />
    <use
       x="0"
       y="0"
       xlink:href="#use4617"
       inkscape:transform-center-x="574.82611"
       inkscape:transform-center-y="791.18047"
       id="use4625"
       transform="matrix(0.8660254,-0.5,0.5,0.8660254,487.14486,460.9625)"
       width="100%"
       height="100%" />
    <use
       x="0"
       y="0"
       xlink:href="#use4619"
       inkscape:transform-center-x="397.76915"
       inkscape:transform-center-y="893.4043"
       id="use4627"
       transform="matrix(0.8660254,-0.5,0.5,0.8660254,487.14486,460.96249)"
       width="100%"
       height="100%" />
    <use
       x="0"
       y="0"
       xlink:href="#use4621"
       inkscape:transform-center-x="302.20394"
       inkscape:transform-center-y="930.08834"
       id="use4629"
       transform="matrix(0.8660254,-0.5,0.5,0.8660254,487.14486,460.96249)"
       width="100%"
       height="100%" />
    <use
       x="0"
       y="0"
       xlink:href="#use4623"
       inkscape:transform-center-x="203.32772"
       inkscape:transform-center-y="956.58214"
       id="use4631"
       transform="matrix(0.8660254,-0.5,0.5,0.8660254,487.14486,460.96249)"
       width="100%"
       height="100%" />
    <use
       x="0"
       y="0"
       xlink:href="#use4625"
       inkscape:transform-center-x="102.22378"
       inkscape:transform-center-y="972.59544"
       id="use4633"
       transform="matrix(0.8660254,-0.5,0.5,0.8660254,487.14486,460.96249)"
       width="100%"
       height="100%" />
  </g>
  <g
     inkscape:groupmode="layer"
     id="layer1"
     inkscape:label="Lochschablone"
     transform="translate(0,1782.2835)"
     style="display:inline"
     sodipodi:insensitive="true">
    <g
       id="g4370"
       inkscape:transform-center-x="-3.7695314e-05"
       inkscape:transform-center-y="690.94484">
      <circle
         r="8.4923954"
         cy="12.401539"
         cx="1103.7401"
         id="path3539"
         style="fill:#000000;fill-opacity:0;fill-rule:evenodd;stroke:#000000;stroke-width:1.0629921;stroke-linecap:butt;stroke-linejoin:miter;stroke-miterlimit:4;stroke-dasharray:none;stroke-opacity:1" />
      <path
         inkscape:connector-curvature="0"
         id="path4366"
         d="m 1087.7953,12.401539 31.8898,0"
         style="fill:none;fill-rule:evenodd;stroke:#000000;stroke-width:0.3934496;stroke-linecap:butt;stroke-linejoin:miter;stroke-miterlimit:4;stroke-dasharray:none;stroke-opacity:1" />
      <use
         height="100%"
         width="100%"
         transform="matrix(0,-1,1,0,1091.3387,1116.1417)"
         id="use4368"
         xlink:href="#path4366"
         y="0"
         x="0" />
    </g>
    <use
       x="0"
       y="0"
       xlink:href="#g4370"
       inkscape:transform-center-x="-95.927542"
       inkscape:transform-center-y="912.68914"
       id="use4379"
       transform="matrix(0.9945219,-0.10452846,0.10452846,0.9945219,100.67759,337.1845)"
       width="100%"
       height="100%" />
    <use
       x="0"
       y="0"
       xlink:href="#use4379"
       inkscape:transform-center-x="-190.80404"
       inkscape:transform-center-y="897.66217"
       id="use4381"
       transform="matrix(0.9945219,-0.10452846,0.10452846,0.9945219,76.973498,111.65513)"
       width="100%"
       height="100%" />
    <use
       x="0"
       y="0"
       xlink:href="#use4381"
       inkscape:transform-center-x="-283.59005"
       inkscape:transform-center-y="872.80023"
       id="use4383"
       transform="matrix(0.9945219,-0.10452846,0.10452846,0.9945219,76.973497,111.65513)"
       width="100%"
       height="100%" />
    <use
       x="0"
       y="0"
       xlink:href="#use4383"
       inkscape:transform-center-x="-373.26899"
       inkscape:transform-center-y="838.37571"
       id="use4385"
       transform="matrix(0.9945219,-0.10452846,0.10452846,0.9945219,76.973497,111.65513)"
       width="100%"
       height="100%" />
    <use
       x="0"
       y="0"
       xlink:href="#use4379"
       inkscape:transform-center-x="-539.42028"
       inkscape:transform-center-y="742.44819"
       id="use4387"
       transform="matrix(0.8660254,-0.5,0.5,0.8660254,487.14482,460.96251)"
       width="100%"
       height="100%" />
    <use
       x="0"
       y="0"
       xlink:href="#use4381"
       inkscape:transform-center-x="-614.07225"
       inkscape:transform-center-y="681.9962"
       id="use4389"
       transform="matrix(0.8660254,-0.5,0.5,0.8660254,487.14482,460.96251)"
       width="100%"
       height="100%" />
    <use
       x="0"
       y="0"
       xlink:href="#use4383"
       inkscape:transform-center-x="-681.99632"
       inkscape:transform-center-y="614.07218"
       id="use4391"
       transform="matrix(0.8660254,-0.5,0.5,0.8660254,487.14482,460.96251)"
       width="100%"
       height="100%" />
    <use
       x="0"
       y="0"
       xlink:href="#use4385"
       inkscape:transform-center-x="-742.4483"
       inkscape:transform-center-y="539.42021"
       id="use4393"
       transform="matrix(0.8660254,-0.5,0.5,0.8660254,487.14482,460.96251)"
       width="100%"
       height="100%" />
    <use
       x="0"
       y="0"
       xlink:href="#use4387"
       inkscape:transform-center-x="-838.37576"
       inkscape:transform-center-y="373.2689"
       id="use4395"
       transform="matrix(0.8660254,-0.5,0.5,0.8660254,487.14482,460.96251)"
       width="100%"
       height="100%" />
    <use
       x="0"
       y="0"
       xlink:href="#use4389"
       inkscape:transform-center-x="-872.80027"
       inkscape:transform-center-y="283.58996"
       id="use4397"
       transform="matrix(0.8660254,-0.5,0.5,0.8660254,487.14482,460.96251)"
       width="100%"
       height="100%" />
    <use
       x="0"
       y="0"
       xlink:href="#use4391"
       inkscape:transform-center-x="-897.6622"
       inkscape:transform-center-y="190.80394"
       id="use4399"
       transform="matrix(0.8660254,-0.5,0.5,0.8660254,487.14482,460.96251)"
       width="100%"
       height="100%" />
    <use
       x="0"
       y="0"
       xlink:href="#use4393"
       inkscape:transform-center-x="-912.68916"
       inkscape:transform-center-y="95.92745"
       id="use4401"
       transform="matrix(0.8660254,-0.5,0.5,0.8660254,487.14482,460.96251)"
       width="100%"
       height="100%" />
    <use
       x="0"
       y="0"
       xlink:href="#use4395"
       inkscape:transform-center-x="-912.68912"
       inkscape:transform-center-y="-95.927541"
       id="use4403"
       transform="matrix(0.8660254,-0.5,0.5,0.8660254,487.14482,460.96251)"
       width="100%"
       height="100%" />
    <use
       x="0"
       y="0"
       xlink:href="#use4397"
       inkscape:transform-center-x="-897.66216"
       inkscape:transform-center-y="-190.80404"
       id="use4405"
       transform="matrix(0.8660254,-0.5,0.5,0.8660254,487.14482,460.96251)"
       width="100%"
       height="100%" />
    <use
       x="0"
       y="0"
       xlink:href="#use4399"
       inkscape:transform-center-x="-872.80021"
       inkscape:transform-center-y="-283.59006"
       id="use4407"
       transform="matrix(0.8660254,-0.5,0.5,0.8660254,487.14482,460.96251)"
       width="100%"
       height="100%" />
    <use
       x="0"
       y="0"
       xlink:href="#use4401"
       inkscape:transform-center-x="-838.3757"
       inkscape:transform-center-y="-373.26899"
       id="use4409"
       transform="matrix(0.8660254,-0.5,0.5,0.8660254,487.14482,460.96251)"
       width="100%"
       height="100%" />
    <use
       x="0"
       y="0"
       xlink:href="#use4403"
       inkscape:transform-center-x="-742.44817"
       inkscape:transform-center-y="-539.42027"
       id="use4411"
       transform="matrix(0.8660254,-0.5,0.5,0.8660254,487.14482,460.96251)"
       width="100%"
       height="100%" />
    <use
       x="0"
       y="0"
       xlink:href="#use4405"
       inkscape:transform-center-x="-681.99619"
       inkscape:transform-center-y="-614.07225"
       id="use4413"
       transform="matrix(0.8660254,-0.5,0.5,0.8660254,487.14482,460.96251)"
       width="100%"
       height="100%" />
    <use
       x="0"
       y="0"
       xlink:href="#use4407"
       inkscape:transform-center-x="-614.07216"
       inkscape:transform-center-y="-681.99632"
       id="use4415"
       transform="matrix(0.8660254,-0.5,0.5,0.8660254,487.14482,460.96251)"
       width="100%"
       height="100%" />
    <use
       x="0"
       y="0"
       xlink:href="#use4409"
       inkscape:transform-center-x="-539.4202"
       inkscape:transform-center-y="-742.44829"
       id="use4417"
       transform="matrix(0.8660254,-0.5,0.5,0.8660254,487.14482,460.96251)"
       width="100%"
       height="100%" />
    <use
       x="0"
       y="0"
       xlink:href="#use4411"
       inkscape:transform-center-x="-373.26888"
       inkscape:transform-center-y="-838.37574"
       id="use4419"
       transform="matrix(0.8660254,-0.5,0.5,0.8660254,487.14482,460.96251)"
       width="100%"
       height="100%" />
    <use
       x="0"
       y="0"
       xlink:href="#use4413"
       inkscape:transform-center-x="-283.58994"
       inkscape:transform-center-y="-872.80026"
       id="use4421"
       transform="matrix(0.8660254,-0.5,0.5,0.8660254,487.14482,460.96251)"
       width="100%"
       height="100%" />
    <use
       x="0"
       y="0"
       xlink:href="#use4415"
       inkscape:transform-center-x="-190.80392"
       inkscape:transform-center-y="-897.66219"
       id="use4423"
       transform="matrix(0.8660254,-0.5,0.5,0.8660254,487.14482,460.96251)"
       width="100%"
       height="100%" />
    <use
       x="0"
       y="0"
       xlink:href="#use4417"
       inkscape:transform-center-x="-95.927443"
       inkscape:transform-center-y="-912.68915"
       id="use4425"
       transform="matrix(0.8660254,-0.5,0.5,0.8660254,487.14482,460.96251)"
       width="100%"
       height="100%" />
    <use
       x="0"
       y="0"
       xlink:href="#use4419"
       inkscape:transform-center-x="95.92755"
       inkscape:transform-center-y="-912.6891"
       id="use4427"
       transform="matrix(0.8660254,-0.5,0.5,0.8660254,487.14482,460.96251)"
       width="100%"
       height="100%" />
    <use
       x="0"
       y="0"
       xlink:href="#use4421"
       inkscape:transform-center-x="190.80405"
       inkscape:transform-center-y="-897.66214"
       id="use4429"
       transform="matrix(0.8660254,-0.5,0.5,0.8660254,487.14482,460.96251)"
       width="100%"
       height="100%" />
    <use
       x="0"
       y="0"
       xlink:href="#use4423"
       inkscape:transform-center-x="283.59007"
       inkscape:transform-center-y="-872.80019"
       id="use4431"
       transform="matrix(0.8660254,-0.5,0.5,0.8660254,487.14482,460.96251)"
       width="100%"
       height="100%" />
    <use
       x="0"
       y="0"
       xlink:href="#use4425"
       inkscape:transform-center-x="373.26899"
       inkscape:transform-center-y="-838.37568"
       id="use4433"
       transform="matrix(0.8660254,-0.5,0.5,0.8660254,487.14482,460.96251)"
       width="100%"
       height="100%" />
    <use
       x="0"
       y="0"
       xlink:href="#use4427"
       inkscape:transform-center-x="539.42027"
       inkscape:transform-center-y="-742.44815"
       id="use4435"
       transform="matrix(0.8660254,-0.5,0.5,0.8660254,487.14482,460.96251)"
       width="100%"
       height="100%" />
    <use
       x="0"
       y="0"
       xlink:href="#use4429"
       inkscape:transform-center-x="614.07225"
       inkscape:transform-center-y="-681.99617"
       id="use4437"
       transform="matrix(0.8660254,-0.5,0.5,0.8660254,487.14482,460.96251)"
       width="100%"
       height="100%" />
    <use
       x="0"
       y="0"
       xlink:href="#use4431"
       inkscape:transform-center-x="681.99632"
       inkscape:transform-center-y="-614.07214"
       id="use4439"
       transform="matrix(0.8660254,-0.5,0.5,0.8660254,487.14482,460.96251)"
       width="100%"
       height="100%" />
    <use
       x="0"
       y="0"
       xlink:href="#use4433"
       inkscape:transform-center-x="742.44829"
       inkscape:transform-center-y="-539.42018"
       id="use4441"
       transform="matrix(0.8660254,-0.5,0.5,0.8660254,487.14482,460.96251)"
       width="100%"
       height="100%" />
    <use
       x="0"
       y="0"
       xlink:href="#use4435"
       inkscape:transform-center-x="838.37574"
       inkscape:transform-center-y="-373.26887"
       id="use4443"
       transform="matrix(0.8660254,-0.5,0.5,0.8660254,487.14482,460.96251)"
       width="100%"
       height="100%" />
    <use
       x="0"
       y="0"
       xlink:href="#use4437"
       inkscape:transform-center-x="872.80026"
       inkscape:transform-center-y="-283.58993"
       id="use4445"
       transform="matrix(0.8660254,-0.5,0.5,0.8660254,487.14482,460.96251)"
       width="100%"
       height="100%" />
    <use
       x="0"
       y="0"
       xlink:href="#use4439"
       inkscape:transform-center-x="897.66218"
       inkscape:transform-center-y="-190.80391"
       id="use4447"
       transform="matrix(0.8660254,-0.5,0.5,0.8660254,487.14482,460.96251)"
       width="100%"
       height="100%" />
    <use
       x="0"
       y="0"
       xlink:href="#use4441"
       inkscape:transform-center-x="912.68914"
       inkscape:transform-center-y="-95.927426"
       id="use4449"
       transform="matrix(0.8660254,-0.5,0.5,0.8660254,487.14482,460.96251)"
       width="100%"
       height="100%" />
    <use
       x="0"
       y="0"
       xlink:href="#use4443"
       inkscape:transform-center-x="912.6891"
       inkscape:transform-center-y="95.92756"
       id="use4451"
       transform="matrix(0.8660254,-0.5,0.5,0.8660254,487.14482,460.96251)"
       width="100%"
       height="100%" />
    <use
       x="0"
       y="0"
       xlink:href="#use4445"
       inkscape:transform-center-x="897.66214"
       inkscape:transform-center-y="190.80406"
       id="use4453"
       transform="matrix(0.8660254,-0.5,0.5,0.8660254,487.14482,460.96251)"
       width="100%"
       height="100%" />
    <use
       x="0"
       y="0"
       xlink:href="#use4447"
       inkscape:transform-center-x="872.80018"
       inkscape:transform-center-y="283.59008"
       id="use4455"
       transform="matrix(0.8660254,-0.5,0.5,0.8660254,487.14482,460.96251)"
       width="100%"
       height="100%" />
    <use
       x="0"
       y="0"
       xlink:href="#use4449"
       inkscape:transform-center-x="838.37567"
       inkscape:transform-center-y="373.269"
       id="use4457"
       transform="matrix(0.8660254,-0.5,0.5,0.8660254,487.14482,460.96251)"
       width="100%"
       height="100%" />
    <use
       x="0"
       y="0"
       xlink:href="#use4451"
       inkscape:transform-center-x="742.44815"
       inkscape:transform-center-y="539.42028"
       id="use4459"
       transform="matrix(0.8660254,-0.5,0.5,0.8660254,487.14482,460.96251)"
       width="100%"
       height="100%" />
    <use
       x="0"
       y="0"
       xlink:href="#use4453"
       inkscape:transform-center-x="681.99617"
       inkscape:transform-center-y="614.07226"
       id="use4461"
       transform="matrix(0.8660254,-0.5,0.5,0.8660254,487.14482,460.96251)"
       width="100%"
       height="100%" />
    <use
       x="0"
       y="0"
       xlink:href="#use4455"
       inkscape:transform-center-x="614.07213"
       inkscape:transform-center-y="681.99633"
       id="use4463"
       transform="matrix(0.8660254,-0.5,0.5,0.8660254,487.14482,460.96251)"
       width="100%"
       height="100%" />
    <use
       x="0"
       y="0"
       xlink:href="#use4457"
       inkscape:transform-center-x="539.42017"
       inkscape:transform-center-y="742.44829"
       id="use4465"
       transform="matrix(0.8660254,-0.5,0.5,0.8660254,487.14482,460.96251)"
       width="100%"
       height="100%" />
    <use
       x="0"
       y="0"
       xlink:href="#use4459"
       inkscape:transform-center-x="373.26886"
       inkscape:transform-center-y="838.37575"
       id="use4467"
       transform="matrix(0.8660254,-0.5,0.5,0.8660254,487.14482,460.96251)"
       width="100%"
       height="100%" />
    <use
       x="0"
       y="0"
       xlink:href="#use4461"
       inkscape:transform-center-x="283.58992"
       inkscape:transform-center-y="872.80027"
       id="use4469"
       transform="matrix(0.8660254,-0.5,0.5,0.8660254,487.14482,460.96251)"
       width="100%"
       height="100%" />
    <use
       x="0"
       y="0"
       xlink:href="#use4463"
       inkscape:transform-center-x="190.8039"
       inkscape:transform-center-y="897.66219"
       id="use4471"
       transform="matrix(0.8660254,-0.5,0.5,0.8660254,487.14482,460.96251)"
       width="100%"
       height="100%" />
    <use
       x="0"
       y="0"
       xlink:href="#use4465"
       inkscape:transform-center-x="95.92742"
       inkscape:transform-center-y="912.68914"
       id="use4473"
       transform="matrix(0.8660254,-0.5,0.5,0.8660254,487.14482,460.96251)"
       width="100%"
       height="100%" />
    <use
       x="0"
       y="0"
       xlink:href="#g4370"
       inkscape:transform-center-x="-345.47246"
       inkscape:transform-center-y="598.37575"
       id="use4475"
       transform="matrix(0.8660254,-0.5,0.5,0.8660254,487.14481,460.96251)"
       width="100%"
       height="100%" />
    <use
       x="0"
       y="0"
       xlink:href="#use4475"
       inkscape:transform-center-x="-598.37581"
       inkscape:transform-center-y="345.47242"
       id="use4477"
       transform="matrix(0.8660254,-0.5,0.5,0.8660254,487.14482,460.96251)"
       width="100%"
       height="100%" />
    <use
       x="0"
       y="0"
       xlink:href="#use4477"
       inkscape:transform-center-x="-690.94483"
       inkscape:transform-center-y="-2.0054127e-05"
       id="use4479"
       transform="matrix(0.8660254,-0.5,0.5,0.8660254,487.14482,460.96251)"
       width="100%"
       height="100%" />
    <use
       x="0"
       y="0"
       xlink:href="#use4479"
       inkscape:transform-center-x="-598.37574"
       inkscape:transform-center-y="-345.47245"
       id="use4481"
       transform="matrix(0.8660254,-0.5,0.5,0.8660254,487.14482,460.96251)"
       width="100%"
       height="100%" />
    <use
       x="0"
       y="0"
       xlink:href="#use4481"
       inkscape:transform-center-x="-345.47241"
       inkscape:transform-center-y="-598.3758"
       id="use4483"
       transform="matrix(0.8660254,-0.5,0.5,0.8660254,487.14482,460.96251)"
       width="100%"
       height="100%" />
    <use
       x="0"
       y="0"
       xlink:href="#use4483"
       inkscape:transform-center-x="2.7182835e-05"
       inkscape:transform-center-y="-690.94482"
       id="use4485"
       transform="matrix(0.8660254,-0.5,0.5,0.8660254,487.14482,460.96251)"
       width="100%"
       height="100%" />
    <use
       x="0"
       y="0"
       xlink:href="#use4485"
       inkscape:transform-center-x="345.47245"
       inkscape:transform-center-y="-598.37573"
       id="use4487"
       transform="matrix(0.8660254,-0.5,0.5,0.8660254,487.14482,460.96251)"
       width="100%"
       height="100%" />
    <use
       x="0"
       y="0"
       xlink:href="#use4487"
       inkscape:transform-center-x="598.3758"
       inkscape:transform-center-y="-345.4724"
       id="use4489"
       transform="matrix(0.8660254,-0.5,0.5,0.8660254,487.14481,460.96251)"
       width="100%"
       height="100%" />
    <use
       x="0"
       y="0"
       xlink:href="#use4489"
       inkscape:transform-center-x="690.94482"
       inkscape:transform-center-y="3.9311542e-05"
       id="use4491"
       transform="matrix(0.8660254,-0.5,0.5,0.8660254,487.14481,460.96251)"
       width="100%"
       height="100%" />
    <use
       x="0"
       y="0"
       xlink:href="#use4491"
       inkscape:transform-center-x="598.37573"
       inkscape:transform-center-y="345.47247"
       id="use4493"
       transform="matrix(0.8660254,-0.5,0.5,0.8660254,487.14481,460.96251)"
       width="100%"
       height="100%" />
    <use
       x="0"
       y="0"
       xlink:href="#use4493"
       inkscape:transform-center-x="345.4724"
       inkscape:transform-center-y="598.37581"
       id="use4495"
       transform="matrix(0.8660254,-0.5,0.5,0.8660254,487.14481,460.9625)"
       width="100%"
       height="100%" />
    <path
       style="fill:none;fill-rule:evenodd;stroke:#000000;stroke-width:0.70866144;stroke-linecap:butt;stroke-linejoin:miter;stroke-miterlimit:4;stroke-dasharray:none;stroke-opacity:1"
       d="m 784.84252,-678.54334 637.79528,0"
       id="path4639"
       inkscape:connector-curvature="0" />
    <use
       x="0"
       y="0"
       xlink:href="#path4639"
       id="use4641"
       transform="matrix(0,-1,1,0,1782.2835,425.19682)"
       width="100%"
       height="100%" />
    <circle
       id="path3349"
       cx="1103.7401"
       cy="-678.54333"
       style="display:inline;fill:none;stroke:#000000;stroke-width:1.30200243px"
       r="247.38049" />
  </g>
</svg>
